<?xml version="1.0" encoding="utf-8"?>
<!-- Generator: Adobe Illustrator 24.1.2, SVG Export Plug-In . SVG Version: 6.00 Build 0)  -->
<svg version="1.1" id="Warstwa_3" xmlns="http://www.w3.org/2000/svg" xmlns:xlink="http://www.w3.org/1999/xlink" x="0px" y="0px"
	 viewBox="0 0 430 430" style="enable-background:new 0 0 430 430;" xml:space="preserve">
<style type="text/css">
	.st0{fill:#545454;}
	.st1{fill:#44079c;}
	.st2{fill:none;stroke:#44079c;stroke-width:12.95;stroke-linecap:round;stroke-linejoin:round;stroke-miterlimit:14.8;}
	.st3{fill:none;}
</style>
<g>
	<path class="st0" d="M199.25,233.24C199.24,233.24,199.24,233.24,199.25,233.24c-11.61,0-22.52-4.53-30.72-12.74L37.86,89.58
		c-2.53-2.53-2.52-6.63,0.01-9.16c2.53-2.53,6.63-2.52,9.16,0.01l130.66,130.92c5.75,5.76,13.41,8.94,21.56,8.94c0,0,0,0,0,0
		c8.15,0,15.8-3.17,21.55-8.94L351.45,80.48c2.53-2.53,6.63-2.54,9.16-0.01c2.53,2.53,2.53,6.63,0.01,9.16L229.97,220.5
		C221.77,228.72,210.85,233.24,199.25,233.24z"/>
	<path class="st0" d="M253.47,299.61H40.2c-3.58,0-6.48-2.9-6.48-6.47V82.29c0-1.72,0.68-3.36,1.9-4.58c1.21-1.21,2.86-1.9,4.58-1.9
		c0,0,0,0,0,0l318.35,0.03c3.58,0,6.47,2.9,6.47,6.47v138.77c0,3.58-2.9,6.47-6.48,6.47s-6.48-2.9-6.48-6.47V88.8l-305.4-0.03
		v197.89h206.79c3.58,0,6.48,2.9,6.48,6.47S257.05,299.61,253.47,299.61z"/>
	<path class="st0" d="M46.62,273.1c-1.81,0-3.61-0.76-4.9-2.23c-2.34-2.7-2.05-6.79,0.65-9.13l77.61-67.29
		c6.14-5.33,12.98-10.04,20.32-14c3.15-1.7,7.08-0.52,8.77,2.63c1.7,3.15,0.52,7.08-2.63,8.77c-6.5,3.5-12.55,7.67-17.98,12.38
		l-77.61,67.29C49.64,272.58,48.13,273.1,46.62,273.1z M293.51,222.02c-1.51,0-3.02-0.52-4.25-1.59l-18.45-16.06
		c-5.61-4.88-11.85-9.16-18.53-12.72c-3.16-1.68-4.35-5.6-2.68-8.76c1.68-3.16,5.6-4.35,8.76-2.68c7.55,4.02,14.6,8.86,20.95,14.38
		l18.45,16.06c2.7,2.35,2.98,6.44,0.63,9.13C297.11,221.26,295.31,222.02,293.51,222.02z"/>
	<path class="st1" d="M320.89,354.18c-41.57,0-75.39-33.82-75.39-75.39s33.82-75.39,75.39-75.39c41.57,0,75.39,33.82,75.39,75.39
		S362.46,354.18,320.89,354.18z M320.89,216.36c-34.43,0-62.44,28.01-62.44,62.44s28.01,62.44,62.44,62.44
		c34.43,0,62.44-28.01,62.44-62.44S355.32,216.36,320.89,216.36z"/>
	<path class="st1" d="M306.55,315.57c-1.72,0-3.36-0.68-4.58-1.9L280.9,292.6c-2.53-2.53-2.53-6.63,0-9.16
		c2.53-2.53,6.63-2.53,9.16,0l16.49,16.49l45.38-45.53c2.53-2.53,6.62-2.54,9.16-0.01s2.54,6.62,0.01,9.16l-49.96,50.12
		C309.92,314.88,308.27,315.56,306.55,315.57C306.55,315.57,306.55,315.57,306.55,315.57z"/>
</g>
</svg>
